<svg width="17" height="12" viewBox="0 0 17 12" fill="none" xmlns="http://www.w3.org/2000/svg">
<path d="M14.0762 1.50252C13.085 1.07281 12.0225 0.755195 10.9114 0.574591C10.9015 0.572765 10.8912 0.573942 10.8821 0.577959C10.8729 0.581976 10.8652 0.588634 10.8602 0.597011C10.7241 0.826813 10.5725 1.12637 10.4663 1.36302C9.28785 1.19377 8.08982 1.19377 6.9114 1.36302C6.79305 1.10075 6.6596 0.845013 6.51166 0.597011C6.50665 0.58853 6.49906 0.581722 6.48991 0.577493C6.48077 0.573265 6.4705 0.571818 6.46048 0.573346C5.35003 0.753949 4.28752 1.07156 3.29562 1.5019C3.28709 1.50534 3.27986 1.5112 3.27489 1.51871C1.25871 4.36789 0.706078 7.14669 0.977537 9.89062C0.978292 9.89734 0.980462 9.90384 0.983915 9.90973C0.987368 9.91562 0.992031 9.92077 0.997621 9.92487C2.17441 10.7484 3.48696 11.3758 4.88032 11.7807C4.89003 11.7836 4.90042 11.7836 4.91013 11.7807C4.91984 11.7778 4.92841 11.7722 4.93474 11.7645C5.23406 11.3784 5.50098 10.9705 5.72903 10.542C5.74264 10.5171 5.72968 10.4872 5.70247 10.4773C5.28395 10.3258 4.87843 10.1429 4.48965 9.93048C4.48267 9.92664 4.47678 9.9212 4.47252 9.91464C4.46826 9.90808 4.46576 9.90061 4.46525 9.8929C4.46473 9.88518 4.46622 9.87746 4.46958 9.87043C4.47293 9.86341 4.47805 9.85729 4.48447 9.85263C4.5661 9.79471 4.64773 9.73431 4.72548 9.6739C4.73247 9.66846 4.7409 9.665 4.74983 9.66391C4.75875 9.66281 4.76781 9.66411 4.77601 9.66767C7.3202 10.7662 10.0756 10.7662 12.59 9.66767C12.5982 9.6639 12.6074 9.66242 12.6164 9.66341C12.6255 9.66441 12.6341 9.66782 12.6412 9.67327C12.7189 9.7343 12.7999 9.79471 12.8822 9.85263C12.8887 9.85719 12.8939 9.86323 12.8973 9.87019C12.9008 9.87716 12.9024 9.88485 12.902 9.89256C12.9016 9.90027 12.8993 9.90777 12.8951 9.91439C12.891 9.92101 12.8852 9.92653 12.8783 9.93048C12.4909 10.1447 12.0879 10.3259 11.6648 10.4766C11.6583 10.4789 11.6524 10.4825 11.6475 10.4871C11.6425 10.4918 11.6387 10.4974 11.6362 10.5036C11.6336 10.5098 11.6325 10.5164 11.6329 10.523C11.6333 10.5297 11.6351 10.5361 11.6383 10.542C11.8715 10.9699 12.1384 11.3772 12.4319 11.7639C12.438 11.7719 12.4465 11.7778 12.4563 11.7809C12.466 11.784 12.4765 11.7842 12.4863 11.7814C13.8821 11.3776 15.1968 10.7499 16.3749 9.92487C16.3806 9.92101 16.3854 9.91601 16.389 9.91021C16.3926 9.90441 16.3948 9.89794 16.3956 9.89124C16.7195 6.71885 15.8527 3.96246 14.0963 1.51996C14.092 1.51202 14.0849 1.50583 14.0762 1.50252ZM6.10933 8.21973C5.34355 8.21973 4.71187 7.55398 4.71187 6.73753C4.71187 5.92046 5.33124 5.25534 6.10933 5.25534C6.89326 5.25534 7.5191 5.92606 7.50679 6.73753C7.50679 7.55461 6.88743 8.21973 6.10933 8.21973ZM11.2761 8.21973C10.5097 8.21973 9.87865 7.55398 9.87865 6.73753C9.87865 5.92046 10.4974 5.25534 11.2761 5.25534C12.06 5.25534 12.6859 5.92606 12.6736 6.73753C12.6736 7.55461 12.0607 8.21973 11.2761 8.21973Z" fill="#121216"/>
</svg>
