<svg width="17" height="13" viewBox="0 0 17 13" fill="none" xmlns="http://www.w3.org/2000/svg">
<path d="M16.5451 2.03552C15.9648 2.2827 15.3414 2.44972 14.686 2.52521C15.3622 2.13626 15.8682 1.52408 16.1094 0.802918C15.474 1.16568 14.7787 1.42102 14.0535 1.55784C13.5659 1.05736 12.92 0.725639 12.2162 0.614169C11.5123 0.5027 10.7899 0.617722 10.161 0.941378C9.53212 1.26503 9.032 1.77922 8.73827 2.40409C8.44455 3.02897 8.37366 3.72959 8.53661 4.39716C7.24925 4.33503 5.98987 4.01338 4.84019 3.45311C3.69052 2.89283 2.67625 2.10644 1.8632 1.14497C1.5852 1.60594 1.42535 2.1404 1.42535 2.7096C1.42504 3.22201 1.55631 3.72657 1.80752 4.17852C2.05872 4.63047 2.4221 5.01582 2.8654 5.3004C2.35129 5.28467 1.84852 5.15114 1.39894 4.91091V4.95099C1.39889 5.66967 1.6575 6.36623 2.13091 6.92248C2.60431 7.47873 3.26333 7.86041 3.99617 8.00276C3.51924 8.12683 3.01923 8.14511 2.53388 8.0562C2.74064 8.67458 3.14339 9.21533 3.68575 9.60275C4.22811 9.99016 4.88293 10.2049 5.55853 10.2168C4.41166 11.0822 2.99528 11.5516 1.53725 11.5496C1.27897 11.5496 1.02091 11.5351 0.764404 11.5061C2.2444 12.4209 3.96721 12.9063 5.72672 12.9044C11.6829 12.9044 14.939 8.16243 14.939 4.04976C14.939 3.91615 14.9355 3.78119 14.9292 3.64758C15.5626 3.2073 16.1093 2.6621 16.5437 2.03752L16.5451 2.03552Z" fill="#121216"/>
</svg>
